<?xml version="1.0" encoding="utf-8"?>
<!-- Generator: Adobe Illustrator 16.0.0, SVG Export Plug-In . SVG Version: 6.00 Build 0)  -->
<!DOCTYPE svg PUBLIC "-//W3C//DTD SVG 1.1//EN" "http://www.w3.org/Graphics/SVG/1.1/DTD/svg11.dtd">
<svg version="1.1" id="Layer_1" xmlns="http://www.w3.org/2000/svg" xmlns:xlink="http://www.w3.org/1999/xlink" x="0px" y="0px"
	 width="1224px" height="384px" viewBox="0 0 1224 384" enable-background="new 0 0 1224 384" xml:space="preserve">
<g>
	<path fill="#5F5020" d="M897.513,196.896c0,0,3.29,39.082,57.376,26.884c43.518-9.814,88.529-26.114,126.566-49.785
		c14.167-8.816,29.285-19.795,32.364-37.428c1.726-9.883,6.443-21.486,2.707-31.425c0,0-5.222,23.479-51.87,45.534
		c-46.647,22.055-119.471,46.167-119.471,46.167s-32.164,11.195-48.76-1.211L897.513,196.896z"/>
	<path fill="#E54B25" d="M1005.767,203.389c0,0-25.878-7.723-18.775-12.389c7.104-4.667,43.104-18.885,43.104-18.885
		s6.663-2.693,11.464,0c5.702,3.197,10.869,5.407,10.869,5.407"/>
	<path fill="#E54B25" d="M548.84,205.492c0,0,47.871-23.816,47.96-23.86c3.742-1.862,11.349-4.406,15.448-2.386
		c6.003,2.958,1.778,10.462-2.576,12.815l-59.73,21.032"/>
	<path fill="#E54B25" d="M159.809,105.679l29.285-11.013c-2.572,13.667,1.666,20.456,1.666,20.456l-30.012,11.202L159.809,105.679z"
		/>
	<path fill="#B7BD78" d="M1119.6,132.546c0.293-4.006,0.342-8.029,0.06-12.037c-0.189-2.686-0.521-5.363-1.02-8.009
		c-0.312-1.647-1.017-5.807-2.113-7.359c0,0-8.331,31.907-35.376,53.809c-11.619,9.409-25.8,15.984-39.221,22.35
		c-18.142,8.604-36.588,16.579-55.374,23.669c-17.67,6.669-36.855,12.709-55.884,8.683c-13.061-2.764-25.685-8.658-34.615-18.819
		c5.969,18.922,15.196,36.851,29.717,50.646c19.214,18.257,43.072,18.312,66.218,11.815
		C1040.842,222.351,1091.112,185.486,1119.6,132.546"/>
	<path fill="#9EA06A" d="M991.991,257.294c14.979-4.204,29.663-11.151,42.595-17.687c1.752-0.886,3.501-1.777,5.248-2.672
		c16.238-8.311,33.078-16.293,46.752-28.611c13.438-12.106,21.946-28.658,27.131-45.782c2.547-8.408,4.501-17.114,5.495-25.849
		c0.157-1.379,0.286-2.762,0.388-4.147C1091.112,185.486,1040.841,222.351,991.991,257.294"/>
	<path fill="#B7BD78" d="M967.241,193.243c10.737,5.847,21.474,11.694,32.209,17.542c0.707,0.385,1.339-0.694,0.632-1.079
		c-10.736-5.847-21.474-11.694-32.209-17.541C967.166,191.779,966.534,192.858,967.241,193.243"/>
	<path fill="#B7BD78" d="M1046.243,163.577c10.736,5.847,21.474,11.694,32.209,17.541c0.707,0.385,1.339-0.694,0.631-1.079
		c-10.735-5.847-21.473-11.694-32.209-17.541C1046.167,162.112,1045.536,163.191,1046.243,163.577"/>
	<path fill="#8E945F" d="M186.521,253.67l-87.149,38.128c0,0,52.653-95.32,58.553-151.149"/>
	<path fill="#B8BD76" d="M157.926,140.648c0,0,10.441,110.755,32.682,151.151l138.895-62.184c0,0-2.419-4.226-6.079-11.97
		c-57.488-17.229-110.669-44.489-157.779-80.032L157.926,140.648z"/>
	<path fill="#999D63" d="M289.557,88.901l-123.913,48.713c47.111,35.543,100.292,62.804,157.78,80.032
		C313.354,196.336,293.885,148.828,289.557,88.901"/>
	<path fill="#CBB398" d="M367.21,231.455l4.977,38.065c2.205,16.861,44.878,25.185,95.314,18.589
		c26.127-3.417,49.209-10.168,65.086-18.225c-29.062-10.708-55.451-28.705-78.181-49.574L367.21,231.455z"/>
	<path fill="#C1AC94" d="M554.83,245.634l-5.253-39.442l-83.959,12.592l-11.211,1.526c22.73,20.87,49.119,38.867,78.181,49.574
		C547.358,262.388,555.893,253.761,554.83,245.634"/>
	<path fill="#6F7060" d="M414.518,251.806c14.19,1.009,30.634,0.511,48.007-1.761c21.889-2.863,41.639-8.066,56.807-14.416
		C485.428,224.204,441.068,226.455,414.518,251.806"/>
	<path fill="#7A7964" d="M549.853,207.569c-0.361-2.758-1.821-5.281-4.203-7.555c-4.478,2.316-9.338,3.793-14.482,4.137
		c-32.532,3.754-65.064,0-97.596,10.01c-18.172,5.679-44.589,11.359-53.989,30.14c8.36,3.884,20.478,6.478,34.935,7.505
		c26.55-25.352,70.91-27.602,104.814-16.177C539.114,227.347,551.101,217.113,549.853,207.569"/>
	<path fill="#8E8671" d="M454.539,188.98c-50.435,6.596-89.534,25.613-87.328,42.475c0.671,5.137,5.115,9.476,12.372,12.846
		c9.4-18.78,35.817-24.462,53.99-30.141c32.531-10.009,65.063-6.256,97.595-10.009c5.145-0.343,10.005-1.82,14.482-4.137
		C533.466,188.389,496.727,183.463,454.539,188.98"/>
	<path fill="#B99E53" d="M474.855,130.881c-1.536-2.374-7.503,5.924-10.563,5.241c-16.851-3.758-32.232-12.362-49.668-14.019
		c-11.468-1.09-25.022,2.592-25.923,16.299c-0.829,12.619,10.955,22.843,22.674,24.485c19.594,2.745,48.698-0.881,48.698-0.881
		c4.148-8.257,8.296-16.514,12.442-24.771c0.551-1.098,2.824-4.14,2.694-5.359C475.17,131.508,475.047,131.178,474.855,130.881"/>
	<path fill="#DDC16B" d="M416.705,163.467c10.083-2.641,20.153-6.249,29-11.772c15.037-9.387,24.154-25.981,37.31-37.553
		c7.618-6.702,18.837-11.629,29.106-11.156c13.581,0.625,21.166,13.47,15.938,26.033c-5.064,12.171-18.03,21.09-29.703,26.123
		C472.772,166.173,443.867,164.341,416.705,163.467"/>
	<path fill="#767664" d="M377.292,228.367c9.853-10.689,25.949-17.068,39.24-21.682c31.083-10.793,64.95-14.14,97.419-8.427
		c6.565,1.156,13.271,2.534,19.553,4.827c0.757,0.276,1.083-0.931,0.332-1.205c-18.397-6.717-39.602-8.194-58.956-7.494
		c-29.574,1.069-61.39,8.305-86.755,24.143c-4.082,2.549-8.425,5.383-11.717,8.954C375.864,228.074,376.745,228.96,377.292,228.367"
		/>
	<path fill="#E2D6D6" d="M761.691,236.845c17.796-10.222,31.726-31.76,34.014-51.718c1.598-13.934-4.043-26.735-12.39-37.584
		c-0.871-1.133-1.77-2.244-2.687-3.342c0.246,0.295-113.501,103.961-101.206,93.374c0,0-5.541,8.341-16.304,16.854
		c1.05-0.83,5.138-0.51,6.521-0.646c2.374-0.231,4.748-0.461,7.122-0.691c4.949-0.482,9.897-0.97,14.841-1.498
		c9.681-1.034,19.349-2.218,28.954-3.808c12.476-2.062,25.677-3.527,37.257-8.926C759.125,238.249,760.419,237.575,761.691,236.845"
		/>
	<path fill="#E2D7D5" d="M766.833,117.291c-2.502,5.005-3.754,11.261-2.502,16.266c1.251,2.502,3.753,5.005,5.005,7.507
		c7.634,8.588,20.354,6.997,27.631,12.968c-0.05-0.288-0.102-0.573-0.146-0.864c-1.449-9.293,2.784-18.037,1.252-27.448
		c-0.121-0.741-0.277-1.486-0.475-2.236c-1.057-4.005-3.206-7.689-6.098-10.561C783.137,108.701,772.318,109.977,766.833,117.291"/>
	<path fill="#E2D6D6" d="M711.012,238.199c17.645-3.213,37.996-10.7,56.001-26.931c6.691-6.033,13.78-12.392,19.532-19.635
		C760.019,207.764,723.905,206.884,711.012,238.199"/>
	<path fill="#5E76B9" d="M796.64,153.148c-2.72-4.255-10.465-4.104-14.828-5.234c-5.032-1.302-9.215-3.8-12.229-7.08
		c-5.558-6.051-7.14-14.763-2.75-23.544c5.485-7.314,16.304-8.59,24.667-4.368c-3.878-3.852-9.093-6.236-14.84-5.917
		c-8.016,0.446-27.593,9.868-38.604-5.147l7.696,31.001c13.159,26.407,25.867,36.505-5.194,57.175
		c-7.111,4.118-3.866,16.148-12.34,19.291c-9.719,3.275-18.31,5.31-28.146,7.477c-2.451,0.42-4.908,0.784-7.368,1.117
		c-8.653,10.563-17.46,18.424-25.947,20.825l-0.052,0.028c0,0,19.473,3.949,44.307-0.572c12.894-31.316,49.007-30.438,75.533-46.566
		c3.946-4.969,7.27-10.35,9.382-16.343C797.938,169.583,800.194,158.712,796.64,153.148"/>
	<path fill="#5E76B9" d="M666.756,238.743c0,0,60.95-106.761,82.807-112.647c21.858-5.886,25.51,46-4.828,72.295
		C714.396,224.688,666.756,238.743,666.756,238.743"/>
	<path fill="#76A354" d="M823.555,240.604c14.398-15.432,8.263-35.947,0.898-54.336c-2.672-1.786-4.453-2.746-4.453-2.746
		s2.911,27.372-16.67,48.329s-16.625,46.744-16.625,46.744c-0.063-0.589,0.702-0.449,1.843-1.393
		C798.813,261.666,811.261,253.281,823.555,240.604"/>
	<path fill="#3F664A" d="M779.864,290.531c1.356-7.647,8.189-13.622,14.638-17.084c1.98-1.063,0.219-4.08-1.764-3.016
		c-7.181,3.855-14.736,10.687-16.241,19.171C776.106,291.8,779.473,292.744,779.864,290.531"/>
	<path fill="#010101" d="M712.659,292.812c20.696-5.74,44.265-6.514,64.982-0.903c2.333,0.632,3.328-2.984,0.997-3.616
		c-21.376-5.79-45.629-5.018-66.977,0.903C709.34,289.84,710.326,293.458,712.659,292.812"/>
	<line fill="#3F664A" x1="840.308" y1="211.769" x2="825.741" y2="201.994"/>
	<path fill="#3D754E" d="M840.623,211.229c-4.855-3.258-9.711-6.518-14.566-9.775c-0.67-0.45-1.297,0.633-0.631,1.079
		c4.855,3.259,9.711,6.517,14.566,9.775C840.662,212.759,841.288,211.675,840.623,211.229"/>
	<line fill="#3F664A" x1="837.268" y1="216.706" x2="822.701" y2="206.931"/>
	<path fill="#3D754E" d="M837.583,216.166c-4.855-3.258-9.711-6.517-14.566-9.774c-0.67-0.45-1.296,0.633-0.631,1.079
		c4.855,3.259,9.711,6.517,14.566,9.774C837.622,217.695,838.248,216.612,837.583,216.166"/>
	<line fill="#3F664A" x1="834.347" y1="220.792" x2="819.78" y2="211.017"/>
	<path fill="#3D754E" d="M834.662,220.252c-4.855-3.258-9.711-6.518-14.566-9.775c-0.67-0.45-1.296,0.633-0.631,1.079
		c4.855,3.259,9.711,6.518,14.566,9.775C834.701,221.781,835.327,220.698,834.662,220.252"/>
	<line fill="#3F664A" x1="834.846" y1="227.45" x2="820.279" y2="217.675"/>
	<path fill="#3D754E" d="M835.161,226.911c-4.855-3.259-9.712-6.518-14.566-9.775c-0.67-0.45-1.296,0.633-0.631,1.079
		c4.854,3.259,9.711,6.517,14.565,9.774C835.199,228.439,835.826,227.356,835.161,226.911"/>
	<path fill="#010101" d="M786.068,127.011l0.487,1.407c0.32,0.925,1.3,1.635,2.307,1.309c0.915-0.296,1.653-1.314,1.31-2.306
		c-0.162-0.469-0.325-0.938-0.487-1.407c-0.319-0.925-1.3-1.635-2.306-1.309C786.463,125.001,785.725,126.019,786.068,127.011"/>
	<path fill="#010101" d="M737.678,285.9c-2.488-8.659-4.977-17.318-7.465-25.978c-0.568-1.978-1.079-3.98-1.706-5.939
		c-0.154-0.479-0.373-1.032-0.44-1.53c-0.117-0.865-0.224,1.401,0.085,0.148c1.056-4.29,2.769-8.509,4.137-12.713
		c0.749-2.3-2.871-3.285-3.615-0.997c-1.34,4.116-3.597,8.64-4.202,12.911c-0.361,2.547,1.081,5.479,1.78,7.916
		c2.604,9.06,5.207,18.119,7.811,27.179C734.727,289.213,738.347,288.229,737.678,285.9"/>
	<path fill="#010101" d="M747.963,285.931l-7.914-26.001c-0.604-1.979-1.157-3.981-1.811-5.944c-0.16-0.481-0.391-1.031-0.466-1.533
		c-0.13-0.865-0.223,1.403,0.079,0.149c1.033-4.29,2.771-8.514,4.138-12.713c0.749-2.3-2.871-3.285-3.616-0.996
		c-1.338,4.109-3.607,8.644-4.201,12.91c-0.356,2.556,1.154,5.49,1.895,7.922c2.76,9.068,5.521,18.135,8.28,27.203
		C745.048,289.229,748.669,288.249,747.963,285.931"/>
	<path fill="#010101" d="M797.491,136.917l-2.501-6.067c0,0,21.236-4.29,22.222-2.96S797.491,136.917,797.491,136.917"/>
	<line fill="#010101" x1="784.113" y1="128.487" x2="786.35" y2="127.778"/>
	<path fill="#010101" d="M784.28,129.09c0.745-0.236,1.49-0.473,2.235-0.709c0.765-0.243,0.438-1.45-0.332-1.206
		c-0.745,0.237-1.49,0.473-2.235,0.71C783.184,128.127,783.51,129.333,784.28,129.09"/>
	<path fill="#231F20" d="M677.289,224.688c22.557-33.124,60.271-58.797,101.75-54.656c5.112,0.51,11.105,1.404,15.635,4.087
		c0.694,0.411,1.324-0.669,0.631-1.079c-3.515-2.083-7.914-3.014-11.878-3.677c-11.61-1.944-23.63-0.729-35.054,1.786
		c-24.61,5.418-44.666,20.542-61.161,39.119c-3.892,4.382-7.699,8.938-11.002,13.789
		C675.756,224.725,676.838,225.351,677.289,224.688"/>
	<path fill="#B89F53" d="M1004.256,254.3l-1.265-2.76c-21.316,10.636-43.262,19.522-64.979,28.816l4.532,9.889
		c2.479,5.413,8.59,8.076,14.147,6.435c0.89-0.262,1.726-0.686,2.503-1.19l39.218-25.46
		C1004.345,267.31,1006.975,260.231,1004.256,254.3"/>
	<path fill="#DFC36C" d="M1000.672,246.479c-2.72-5.932-9.798-8.562-15.729-5.843l-45.013,13.12c-0.62,0.18-1.234,0.395-1.797,0.711
		c-5.317,2.984-7.561,9.653-4.979,15.289l4.858,10.601c21.718-9.294,43.663-18.181,64.978-28.816L1000.672,246.479z"/>
	<path fill="#5A5B55" d="M1000.679,254.362c27.19-11.956,54.382-23.911,81.572-35.867c3.927-1.727,7.855-3.454,11.782-5.18
		c2.204-0.971,0.298-4.202-1.893-3.238c-27.191,11.955-54.383,23.911-81.573,35.867c-3.927,1.727-7.855,3.453-11.782,5.18
		C996.581,252.093,998.487,255.325,1000.679,254.362"/>
	<path fill="#9EA06A" d="M1111.252,126.991c-7.464,15.456-17.958,29.547-31.754,39.91c-15.188,11.409-33.387,18.987-50.604,26.759
		c-19.016,8.585-38.529,17.282-58.635,23.016c-20.714,5.908-41.713,5.266-60.537-6.004c-0.691-0.414-1.321,0.666-0.631,1.079
		c13.273,7.946,28.734,11.453,44.124,9.696c16.207-1.852,31.629-8.073,46.666-14.081c15.856-6.336,31.437-13.309,46.86-20.632
		c13.667-6.49,27.466-13.219,38.943-23.25c11.324-9.897,20.128-22.366,26.646-35.862
		C1112.68,126.901,1111.602,126.266,1111.252,126.991"/>
	<path fill="#595E57" d="M160.708,294.067c0.051-21.364,0.103-42.729,0.154-64.094c0.081-33.865,0.162-67.73,0.244-101.596
		c0.018-7.816,0.037-15.633,0.056-23.45c0.006-2.413-3.744-2.416-3.75,0c-0.051,21.365-0.103,42.729-0.154,64.094
		c-0.081,33.865-0.162,67.731-0.244,101.596c-0.018,7.816-0.037,15.633-0.056,23.449
		C156.953,296.48,160.703,296.484,160.708,294.067"/>
	<path fill="#999D63" d="M201.838,278.325c32.696-14.638,65.392-29.276,98.088-43.914c4.695-2.103,9.391-4.204,14.086-6.307
		c0.733-0.329,0.098-1.406-0.631-1.08c-32.695,14.639-65.391,29.277-98.087,43.915c-4.696,2.103-9.391,4.204-14.087,6.308
		C200.474,277.575,201.109,278.651,201.838,278.325"/>
	<path fill="#5E76B9" d="M615.915,275.994c-13.795,36.343,101.162-56.901,84.122-49.307
		C672.613,238.915,593.348,268.436,615.915,275.994"/>
	<path fill="#010101" d="M798.391,163.784c-5.023-5.648-14.612-7.516-22.118-8.991c-10.268-2.017-24.206-4.974-29.778-15.106
		c-1.452-2.642-2.313-6.042-2.449-9.054c-0.34-7.626-1.488-12.349-1.488-12.349s39.329,8.09,39.584,10.583
		c0.162,1.585-3.864,3.083-5.354,3.498c-5.291,1.47-10.457,2.651-15.146,5.658c-1.865,1.196-2.19,3.719-1.058,5.468
		c1.388,2.142,4.033,2.965,6.321,3.726c3.944,1.312,8.141,2.621,12.231,3.776c3.951,1.116,8.093,1.884,11.858,3.559
		c4.055,1.802,6.164,4.937,7.417,9.128"/>
	<path fill="#E54B25" d="M781.666,278.096c0,3.851-3.121,6.972-6.972,6.972c-3.849,0-6.97-3.121-6.97-6.972
		c0-3.85,3.121-6.971,6.97-6.971C778.545,271.125,781.666,274.246,781.666,278.096"/>
	<path fill="#3D754E" d="M824.475,186.317c7.366,18.389,13.5,38.905-0.898,54.337c-12.294,12.677-28.057,20.763-35.028,36.721
		c2.902-2.403,8.284-4.594,9.338-5.059c8.704-3.851,16.356-4.791,24.8-7.909c17.168-6.339,28.226-27.013,26.323-44.912
		C847.306,203.487,832.167,191.458,824.475,186.317"/>
	<path fill="#C8B671" d="M446.225,210.937c3.471,0.987,6.983,1.678,10.564,2.123c1.592,0.197,1.578-2.305,0-2.5
		c-3.354-0.416-6.65-1.109-9.899-2.034C445.338,208.084,444.677,210.496,446.225,210.937"/>
	<path fill="#C8B671" d="M471.633,207.532c1.707-0.783,3.464-1.419,5.269-1.938c1.543-0.443,0.887-2.856-0.665-2.411
		c-2.012,0.579-3.963,1.317-5.866,2.19C468.911,206.043,470.179,208.199,471.633,207.532"/>
	<path fill="#C8B671" d="M468.791,223.045c2.061,0.018,4.096-0.254,6.08-0.812c1.547-0.434,0.89-2.847-0.664-2.41
		c-1.782,0.5-3.566,0.737-5.416,0.722C467.182,220.53,467.18,223.03,468.791,223.045"/>
	<path fill="#999D63" d="M187.708,275.577c2.96-1.325,5.919-2.65,8.879-3.976c0.733-0.327,0.098-1.405-0.631-1.079
		c-2.96,1.325-5.919,2.65-8.879,3.976C186.345,274.826,186.979,275.903,187.708,275.577"/>
	<path fill="#999D63" d="M184.669,266.93c2.96-1.325,5.919-2.65,8.879-3.976c0.733-0.327,0.098-1.405-0.631-1.08l-8.879,3.977
		C183.305,266.179,183.94,267.256,184.669,266.93"/>
	<path fill="#999D63" d="M181.638,258.282c2.96-1.325,5.919-2.65,8.879-3.976c0.733-0.328,0.098-1.405-0.631-1.08
		c-2.96,1.326-5.919,2.651-8.879,3.977C180.273,257.531,180.909,258.608,181.638,258.282"/>
	<path fill="#999D63" d="M179.575,249.634c2.96-1.324,5.919-2.649,8.879-3.975c0.733-0.328,0.098-1.406-0.631-1.08
		c-2.96,1.326-5.919,2.651-8.879,3.977C178.211,248.884,178.846,249.96,179.575,249.634"/>
	<path fill="#999D63" d="M177.281,240.986c2.96-1.324,5.919-2.649,8.879-3.975c0.733-0.328,0.098-1.406-0.631-1.08
		c-2.96,1.326-5.919,2.651-8.879,3.977C175.917,240.235,176.552,241.312,177.281,240.986"/>
	<path fill="#999D63" d="M175.055,232.339c2.96-1.324,5.919-2.649,8.879-3.975c0.733-0.328,0.098-1.406-0.631-1.08
		c-2.96,1.326-5.919,2.651-8.879,3.976C173.69,231.588,174.326,232.665,175.055,232.339"/>
	<path fill="#999D63" d="M173.759,223.691c2.96-1.325,5.919-2.649,8.879-3.975c0.733-0.328,0.098-1.406-0.631-1.08
		c-2.96,1.326-5.919,2.651-8.879,3.976C172.395,222.94,173.03,224.018,173.759,223.691"/>
	<path fill="#999D63" d="M171.751,215.044c2.96-1.325,5.919-2.65,8.879-3.975c0.733-0.328,0.098-1.406-0.631-1.08
		c-2.96,1.326-5.919,2.65-8.879,3.976C170.388,214.293,171.022,215.37,171.751,215.044"/>
	<path fill="#999D63" d="M170.319,206.396c2.96-1.325,5.919-2.65,8.879-3.976c0.733-0.327,0.098-1.405-0.631-1.08l-8.879,3.977
		C168.955,205.646,169.59,206.723,170.319,206.396"/>
	<path fill="#999D63" d="M168.402,197.749c2.96-1.325,5.919-2.65,8.879-3.975c0.733-0.328,0.098-1.406-0.631-1.08
		c-2.96,1.326-5.919,2.651-8.879,3.976C167.038,196.998,167.673,198.074,168.402,197.749"/>
	<path fill="#999D63" d="M166.312,189.101c2.96-1.325,5.919-2.65,8.879-3.975c0.733-0.328,0.098-1.406-0.631-1.08
		c-2.96,1.326-5.919,2.651-8.879,3.976C164.948,188.35,165.583,189.427,166.312,189.101"/>
	<path fill="#999D63" d="M164.88,179.46l4.439-1.988c0.733-0.328,0.098-1.405-0.63-1.079c-1.48,0.663-2.96,1.325-4.44,1.988
		C163.516,178.709,164.151,179.786,164.88,179.46"/>
	<path fill="#D6402A" d="M434.489,225.638c3.601-0.152,7.163-0.582,10.699-1.28c1.577-0.311,0.91-2.721-0.664-2.411
		c-3.32,0.656-6.655,1.049-10.035,1.191C432.886,223.206,432.878,225.706,434.489,225.638"/>
</g>
</svg>
